<?xml version="1.0" standalone="no"?><!DOCTYPE svg PUBLIC "-//W3C//DTD SVG 1.1//EN" "http://www.w3.org/Graphics/SVG/1.1/DTD/svg11.dtd"><svg t="1649755262479" class="icon" viewBox="0 0 1024 1024" version="1.1" xmlns="http://www.w3.org/2000/svg" p-id="17567" xmlns:xlink="http://www.w3.org/1999/xlink" width="200" height="200"><defs><style type="text/css">@font-face { font-family: feedback-iconfont; src: url("//at.alicdn.com/t/font_1031158_u69w8yhxdu.woff2?t=1630033759944") format("woff2"), url("//at.alicdn.com/t/font_1031158_u69w8yhxdu.woff?t=1630033759944") format("woff"), url("//at.alicdn.com/t/font_1031158_u69w8yhxdu.ttf?t=1630033759944") format("truetype"); }
</style></defs><path d="M873.813333 703.943111h-101.660444v-101.660444a30.833778 30.833778 0 0 0-61.610667 0v101.376h-101.376a30.833778 30.833778 0 0 0 0 61.610666h101.376v101.376a30.833778 30.833778 0 1 0 61.610667 0v-101.091555h101.660444a30.833778 30.833778 0 0 0 0-61.610667z m-111.559111-378.083555a212.593778 212.593778 0 1 0-338.944 171.633777 364.088889 364.088889 0 0 0-252.700444 342.016 350.833778 350.833778 0 0 0 3.413333 48.355556 30.833778 30.833778 0 0 0 30.833778 26.510222h4.323555a30.833778 30.833778 0 0 0 26.168889-34.816 290.133333 290.133333 0 0 1-2.787555-39.822222 309.703111 309.703111 0 0 1 317.383111-300.771556A212.935111 212.935111 0 0 0 762.311111 325.802667zM549.660444 476.842667a151.153778 151.153778 0 1 1 0 0.284444z" p-id="17568"></path><path d="M204.572444 920.120889a36.693333 36.693333 0 0 1-36.124444-31.402667 357.774222 357.774222 0 0 1-3.470222-49.152A369.777778 369.777778 0 0 1 411.477333 495.502222a218.282667 218.282667 0 1 1 138.524445 49.322667h-8.021334a302.421333 302.421333 0 0 0-303.729777 295.310222 285.354667 285.354667 0 0 0 2.730666 38.798222 36.522667 36.522667 0 0 1-31.004444 41.244445h-5.688889zM549.546667 119.466667A206.961778 206.961778 0 0 0 426.666667 492.828444l8.931555 6.599112-10.581333 3.413333a358.4 358.4 0 0 0-248.718222 336.668444 346.168889 346.168889 0 0 0 3.356444 47.502223 25.258667 25.258667 0 0 0 24.860445 21.617777h4.209777a25.144889 25.144889 0 0 0 20.992-28.444444 296.789333 296.789333 0 0 1-2.844444-40.561778 315.392 315.392 0 0 1 315.164444-306.346667h8.135111a206.961778 206.961778 0 0 0-0.512-413.866666z m191.715555 783.587555a36.522667 36.522667 0 0 1-36.522666-36.522666V770.844444h-95.687112a36.522667 36.522667 0 1 1 0-72.988444h95.687112v-95.687111a36.522667 36.522667 0 1 1 72.988444 0v96.085333h96.085333a36.522667 36.522667 0 0 1-0.284444 72.988445h-95.687111v95.402666a36.522667 36.522667 0 0 1-36.522667 36.408889z m-132.209778-193.820444a25.144889 25.144889 0 1 0 0 50.232889h107.064889v107.064889a25.144889 25.144889 0 1 0 50.232889 0v-106.780445h107.463111a25.144889 25.144889 0 0 0 0-50.232889h-107.064889v-107.349333a25.144889 25.144889 0 0 0-50.232888 0v107.064889zM543.914667 482.759111v-0.398222a149.048889 149.048889 0 1 1 5.688889 0.398222z m5.688889-302.307555a145.294222 145.294222 0 0 0 0 290.588444h5.688888a145.464889 145.464889 0 0 0-5.688888-290.759111z" p-id="17569"></path></svg>